<?xml version="1.0" encoding="UTF-8" standalone="no"?><!DOCTYPE svg PUBLIC "-//W3C//DTD SVG 1.1//EN" "http://www.w3.org/Graphics/SVG/1.1/DTD/svg11.dtd"><svg width="100%" height="100%" viewBox="0 0 1280 801" version="1.1" xmlns="http://www.w3.org/2000/svg" xmlns:xlink="http://www.w3.org/1999/xlink" xml:space="preserve" xmlns:serif="http://www.serif.com/" style="fill-rule:evenodd;clip-rule:evenodd;stroke-linecap:round;stroke-linejoin:round;stroke-miterlimit:1.5;"><rect id="Slide-2" serif:id="Slide 2" x="0" y="0.12" width="1280" height="800" style="fill:none;"/><g id="Outline"><path d="M1164.84,111.173c0,-6.645 -5.395,-12.04 -12.04,-12.04l-1023.59,0c-6.645,0 -12.04,5.395 -12.04,12.04l0,577.894c0,6.645 5.395,12.04 12.04,12.04l1023.59,0c6.645,0 12.04,-5.395 12.04,-12.04l0,-577.894Z" style="fill:none;stroke:#9d33d6;stroke-width:5px;"/><path d="M117.165,158.177l1047.67,0" style="fill:none;stroke:#9d33d6;stroke-width:5px;"/><path d="M399.496,701.167l1,-542.99" style="fill:none;stroke:#9d33d6;stroke-width:5px;stroke-linecap:square;stroke-linejoin:miter;"/></g><g id="Albums"><g opacity="0.2"><rect x="741.842" y="338.562" width="80.075" height="80.075" style="fill:none;stroke:#9d33d6;stroke-width:5px;"/><rect x="741.873" y="570.176" width="80.075" height="80.075" style="fill:none;stroke:#9d33d6;stroke-width:5px;"/><rect x="741.383" y="222.761" width="80.075" height="80.075" style="fill:none;stroke:#9d33d6;stroke-width:5px;"/><rect x="741.414" y="454.375" width="80.075" height="80.075" style="fill:none;stroke:#9d33d6;stroke-width:5px;"/><rect x="545.443" y="338.585" width="80.075" height="80.075" style="fill:none;stroke:#9d33d6;stroke-width:5px;"/><rect x="545.474" y="570.199" width="80.075" height="80.075" style="fill:none;stroke:#9d33d6;stroke-width:5px;"/><rect x="544.984" y="222.784" width="80.075" height="80.075" style="fill:none;stroke:#9d33d6;stroke-width:5px;"/><rect x="545.015" y="454.398" width="80.075" height="80.075" style="fill:none;stroke:#9d33d6;stroke-width:5px;"/><rect x="938.24" y="338.73" width="80.075" height="80.075" style="fill:none;stroke:#9d33d6;stroke-width:5px;"/><rect x="938.272" y="570.344" width="80.075" height="80.075" style="fill:none;stroke:#9d33d6;stroke-width:5px;"/><rect x="937.781" y="222.929" width="80.075" height="80.075" style="fill:none;stroke:#9d33d6;stroke-width:5px;"/><rect x="937.812" y="454.543" width="80.075" height="80.075" style="fill:none;stroke:#9d33d6;stroke-width:5px;"/><rect x="643.642" y="338.568" width="80.075" height="80.075" style="fill:none;stroke:#9d33d6;stroke-width:5px;"/><rect x="643.674" y="570.181" width="80.075" height="80.075" style="fill:none;stroke:#9d33d6;stroke-width:5px;"/><rect x="643.183" y="222.767" width="80.075" height="80.075" style="fill:none;stroke:#9d33d6;stroke-width:5px;"/><rect x="643.215" y="454.381" width="80.075" height="80.075" style="fill:none;stroke:#9d33d6;stroke-width:5px;"/><rect x="447.244" y="338.591" width="80.075" height="80.075" style="fill:none;stroke:#9d33d6;stroke-width:5px;"/><rect x="447.275" y="570.204" width="80.075" height="80.075" style="fill:none;stroke:#9d33d6;stroke-width:5px;"/><rect x="446.785" y="222.79" width="80.075" height="80.075" style="fill:none;stroke:#9d33d6;stroke-width:5px;"/><rect x="446.816" y="454.404" width="80.075" height="80.075" style="fill:none;stroke:#9d33d6;stroke-width:5px;"/><rect x="840.041" y="338.448" width="80.075" height="80.075" style="fill:none;stroke:#9d33d6;stroke-width:5px;"/><rect x="840.072" y="570.062" width="80.075" height="80.075" style="fill:none;stroke:#9d33d6;stroke-width:5px;"/><rect x="839.582" y="222.648" width="80.075" height="80.075" style="fill:none;stroke:#9d33d6;stroke-width:5px;"/><rect x="839.613" y="454.261" width="80.075" height="80.075" style="fill:none;stroke:#9d33d6;stroke-width:5px;"/><rect x="1036.44" y="338.616" width="80.075" height="80.075" style="fill:none;stroke:#9d33d6;stroke-width:5px;"/><rect x="1036.47" y="570.23" width="80.075" height="80.075" style="fill:none;stroke:#9d33d6;stroke-width:5px;"/><rect x="1035.98" y="222.816" width="80.075" height="80.075" style="fill:none;stroke:#9d33d6;stroke-width:5px;"/><rect x="1036.01" y="454.43" width="80.075" height="80.075" style="fill:none;stroke:#9d33d6;stroke-width:5px;"/></g></g><g id="Sidebar"><rect x="147.678" y="222.761" width="212.475" height="15.94" style="fill:none;stroke:#9d33d6;stroke-width:5px;"/><rect x="147.678" y="415.991" width="111" height="15.94" style="fill:none;stroke:#9d33d6;stroke-width:5px;"/><rect x="147.678" y="318.857" width="185" height="15.94" style="fill:none;stroke:#9d33d6;stroke-width:5px;"/><rect x="147.678" y="512.087" width="132" height="15.94" style="fill:none;stroke:#9d33d6;stroke-width:5px;"/><rect x="147.678" y="286.71" width="137" height="15.812" style="fill:none;stroke:#9d33d6;stroke-width:5px;"/><rect x="147.678" y="479.94" width="173" height="15.812" style="fill:none;stroke:#9d33d6;stroke-width:5px;"/><rect x="147.678" y="382.806" width="156" height="15.812" style="fill:none;stroke:#9d33d6;stroke-width:5px;"/><rect x="147.678" y="576.036" width="100" height="15.812" style="fill:none;stroke:#9d33d6;stroke-width:5px;"/><rect x="147.678" y="255.602" width="200" height="15" style="fill:none;stroke:#9d33d6;stroke-width:5px;"/><rect x="147.678" y="448.832" width="199" height="15.007" style="fill:none;stroke:#9d33d6;stroke-width:5px;"/><rect x="147.678" y="351.698" width="127" height="15.007" style="fill:none;stroke:#9d33d6;stroke-width:5px;"/><rect x="147.678" y="544.928" width="143" height="15.007" style="fill:none;stroke:#9d33d6;stroke-width:5px;"/></g><g id="Folder"><rect x="681.198" y="382.268" width="200" height="135.29" style="fill:none;stroke:#9d33d6;stroke-width:5px;"/><path d="M787.864,361.447c0,-3.734 -3.031,-6.765 -6.764,-6.765l-93.138,0c-3.733,0 -6.764,3.031 -6.764,6.765l0,20.293l106.666,0l0,-20.293Z" style="fill:none;stroke:#9d33d6;stroke-width:5px;stroke-linecap:square;stroke-linejoin:miter;"/></g></svg>