<?xml version="1.0" encoding="UTF-8" standalone="no"?><!DOCTYPE svg PUBLIC "-//W3C//DTD SVG 1.1//EN" "http://www.w3.org/Graphics/SVG/1.1/DTD/svg11.dtd"><svg width="100%" height="100%" viewBox="0 0 1280 801" version="1.1" xmlns="http://www.w3.org/2000/svg" xmlns:xlink="http://www.w3.org/1999/xlink" xml:space="preserve" xmlns:serif="http://www.serif.com/" style="fill-rule:evenodd;clip-rule:evenodd;stroke-linecap:round;stroke-linejoin:round;stroke-miterlimit:1.5;"><rect id="Slide-3" serif:id="Slide 3" x="0" y="0.058" width="1280" height="800" style="fill:none;"/><g id="Outline"><path d="M1164.84,111.111c0,-6.645 -5.395,-12.039 -12.04,-12.039l-1023.59,0c-6.645,0 -12.04,5.394 -12.04,12.039l0,577.895c0,6.645 5.395,12.039 12.04,12.039l1023.59,0c6.645,0 12.04,-5.394 12.04,-12.039l0,-577.895Z" style="fill:none;stroke:#9d33d6;stroke-width:5px;"/><path d="M117.165,158.115l1047.67,0" style="fill:none;stroke:#9d33d6;stroke-width:5px;"/><path d="M399.496,701.106l1,-542.991" style="fill:none;stroke:#9d33d6;stroke-width:5px;stroke-linecap:square;stroke-linejoin:miter;"/></g><g id="Albums"><g opacity="0.2"><rect x="741.842" y="338.5" width="80.075" height="80.075" style="fill:none;stroke:#9d33d6;stroke-width:5px;"/><rect x="741.873" y="570.114" width="80.075" height="80.075" style="fill:none;stroke:#9d33d6;stroke-width:5px;"/><rect x="741.383" y="222.7" width="80.075" height="80.075" style="fill:none;stroke:#9d33d6;stroke-width:5px;"/><rect x="741.414" y="454.313" width="80.075" height="80.075" style="fill:none;stroke:#9d33d6;stroke-width:5px;"/><rect x="545.443" y="338.523" width="80.075" height="80.075" style="fill:none;stroke:#9d33d6;stroke-width:5px;"/><rect x="545.474" y="570.137" width="80.075" height="80.075" style="fill:none;stroke:#9d33d6;stroke-width:5px;"/><rect x="544.984" y="222.723" width="80.075" height="80.075" style="fill:none;stroke:#9d33d6;stroke-width:5px;"/><rect x="545.015" y="454.336" width="80.075" height="80.075" style="fill:none;stroke:#9d33d6;stroke-width:5px;"/><rect x="938.24" y="338.668" width="80.075" height="80.075" style="fill:none;stroke:#9d33d6;stroke-width:5px;"/><rect x="938.272" y="570.282" width="80.075" height="80.075" style="fill:none;stroke:#9d33d6;stroke-width:5px;"/><rect x="937.781" y="222.868" width="80.075" height="80.075" style="fill:none;stroke:#9d33d6;stroke-width:5px;"/><rect x="937.812" y="454.482" width="80.075" height="80.075" style="fill:none;stroke:#9d33d6;stroke-width:5px;"/><rect x="643.642" y="338.506" width="80.075" height="80.075" style="fill:none;stroke:#9d33d6;stroke-width:5px;"/><rect x="643.674" y="570.12" width="80.075" height="80.075" style="fill:none;stroke:#9d33d6;stroke-width:5px;"/><rect x="643.183" y="222.705" width="80.075" height="80.075" style="fill:none;stroke:#9d33d6;stroke-width:5px;"/><rect x="643.215" y="454.319" width="80.075" height="80.075" style="fill:none;stroke:#9d33d6;stroke-width:5px;"/><rect x="447.244" y="338.529" width="80.075" height="80.075" style="fill:none;stroke:#9d33d6;stroke-width:5px;"/><rect x="447.275" y="570.143" width="80.075" height="80.075" style="fill:none;stroke:#9d33d6;stroke-width:5px;"/><rect x="446.785" y="222.729" width="80.075" height="80.075" style="fill:none;stroke:#9d33d6;stroke-width:5px;"/><rect x="446.816" y="454.342" width="80.075" height="80.075" style="fill:none;stroke:#9d33d6;stroke-width:5px;"/><rect x="840.041" y="338.387" width="80.075" height="80.075" style="fill:none;stroke:#9d33d6;stroke-width:5px;"/><rect x="840.072" y="570" width="80.075" height="80.075" style="fill:none;stroke:#9d33d6;stroke-width:5px;"/><rect x="839.582" y="222.586" width="80.075" height="80.075" style="fill:none;stroke:#9d33d6;stroke-width:5px;"/><rect x="839.613" y="454.2" width="80.075" height="80.075" style="fill:none;stroke:#9d33d6;stroke-width:5px;"/><rect x="1036.44" y="338.555" width="80.075" height="80.075" style="fill:none;stroke:#9d33d6;stroke-width:5px;"/><rect x="1036.47" y="570.169" width="80.075" height="80.075" style="fill:none;stroke:#9d33d6;stroke-width:5px;"/><rect x="1035.98" y="222.754" width="80.075" height="80.075" style="fill:none;stroke:#9d33d6;stroke-width:5px;"/><rect x="1036.01" y="454.368" width="80.075" height="80.075" style="fill:none;stroke:#9d33d6;stroke-width:5px;"/></g></g><g id="Sidebar"><rect x="147.678" y="222.7" width="212.475" height="15.94" style="fill:none;stroke:#9d33d6;stroke-width:5px;"/><rect x="147.678" y="415.93" width="111" height="15.94" style="fill:none;stroke:#9d33d6;stroke-width:5px;"/><rect x="147.678" y="318.796" width="185" height="15.94" style="fill:none;stroke:#9d33d6;stroke-width:5px;"/><rect x="147.678" y="512.026" width="132" height="15.94" style="fill:none;stroke:#9d33d6;stroke-width:5px;"/><rect x="147.678" y="286.649" width="137" height="15.812" style="fill:none;stroke:#9d33d6;stroke-width:5px;"/><rect x="147.678" y="479.879" width="173" height="15.812" style="fill:none;stroke:#9d33d6;stroke-width:5px;"/><rect x="147.678" y="382.744" width="156" height="15.812" style="fill:none;stroke:#9d33d6;stroke-width:5px;"/><rect x="147.678" y="575.974" width="100" height="15.812" style="fill:none;stroke:#9d33d6;stroke-width:5px;"/><rect x="147.678" y="255.541" width="200" height="15" style="fill:none;stroke:#9d33d6;stroke-width:5px;"/><rect x="147.678" y="448.771" width="199" height="15.007" style="fill:none;stroke:#9d33d6;stroke-width:5px;"/><rect x="147.678" y="351.637" width="127" height="15.007" style="fill:none;stroke:#9d33d6;stroke-width:5px;"/><rect x="147.678" y="544.867" width="143" height="15.007" style="fill:none;stroke:#9d33d6;stroke-width:5px;"/></g><g id="Notes"><ellipse cx="688.779" cy="491.915" rx="25.561" ry="22.225" style="fill:#9d33d6;stroke:#9d33d6;stroke-width:5px;stroke-linecap:square;stroke-linejoin:miter;"/><ellipse cx="837.657" cy="465.641" rx="25.561" ry="22.225" style="fill:#9d33d6;stroke:#9d33d6;stroke-width:5px;stroke-linecap:square;stroke-linejoin:miter;"/><path d="M714.339,491.915l0,-126.28" style="fill:none;stroke:#9d33d6;stroke-width:5px;stroke-linecap:square;stroke-linejoin:miter;"/><path d="M863.218,465.641l0,-126.28" style="fill:none;stroke:#9d33d6;stroke-width:5px;stroke-linecap:square;stroke-linejoin:miter;"/><path d="M714.339,365.635l148.879,-26.274l0,-25.22l-148.879,25.22l0,26.274Z" style="fill:#9d33d6;stroke:#9d33d6;stroke-width:5px;stroke-linecap:square;stroke-linejoin:miter;"/></g></svg>