<?xml version="1.0" encoding="UTF-8" standalone="no"?><!DOCTYPE svg PUBLIC "-//W3C//DTD SVG 1.1//EN" "http://www.w3.org/Graphics/SVG/1.1/DTD/svg11.dtd"><svg width="100%" height="100%" viewBox="0 0 1280 800" version="1.1" xmlns="http://www.w3.org/2000/svg" xmlns:xlink="http://www.w3.org/1999/xlink" xml:space="preserve" xmlns:serif="http://www.serif.com/" style="fill-rule:evenodd;clip-rule:evenodd;stroke-linecap:round;stroke-linejoin:round;stroke-miterlimit:1.5;"><rect id="Slide-1" serif:id="Slide 1" x="0" y="0" width="1280" height="800" style="fill:none;"/><clipPath id="_clip1"><rect id="Slide-11" serif:id="Slide 1" x="0" y="0" width="1280" height="800"/></clipPath><g clip-path="url(#_clip1)"><g id="Outline"><path d="M1164.84,111.053c0,-6.645 -5.395,-12.04 -12.04,-12.04l-1023.59,0c-6.645,0 -12.04,5.395 -12.04,12.04l0,577.894c0,6.645 5.395,12.04 12.04,12.04l1023.59,0c6.645,0 12.04,-5.395 12.04,-12.04l0,-577.894Z" style="fill:none;stroke:#9d33d6;stroke-width:5px;"/><path d="M117.165,158.057l1047.67,0" style="fill:none;stroke:#9d33d6;stroke-width:5px;"/><path d="M399.496,701.047l1,-542.99" style="fill:none;stroke:#9d33d6;stroke-width:5px;stroke-linecap:square;stroke-linejoin:miter;"/></g><g id="Albums"><rect x="741.842" y="338.442" width="80.075" height="80.075" style="fill:none;stroke:#9d33d6;stroke-width:5px;"/><rect x="741.873" y="570.056" width="80.075" height="80.075" style="fill:none;stroke:#9d33d6;stroke-width:5px;"/><rect x="741.383" y="222.641" width="80.075" height="80.075" style="fill:none;stroke:#9d33d6;stroke-width:5px;"/><rect x="741.414" y="454.255" width="80.075" height="80.075" style="fill:none;stroke:#9d33d6;stroke-width:5px;"/><rect x="545.443" y="338.465" width="80.075" height="80.075" style="fill:none;stroke:#9d33d6;stroke-width:5px;"/><rect x="545.474" y="570.079" width="80.075" height="80.075" style="fill:none;stroke:#9d33d6;stroke-width:5px;"/><rect x="544.984" y="222.664" width="80.075" height="80.075" style="fill:none;stroke:#9d33d6;stroke-width:5px;"/><rect x="545.015" y="454.278" width="80.075" height="80.075" style="fill:none;stroke:#9d33d6;stroke-width:5px;"/><rect x="938.24" y="338.61" width="80.075" height="80.075" style="fill:none;stroke:#9d33d6;stroke-width:5px;"/><rect x="938.272" y="570.224" width="80.075" height="80.075" style="fill:none;stroke:#9d33d6;stroke-width:5px;"/><rect x="937.781" y="222.809" width="80.075" height="80.075" style="fill:none;stroke:#9d33d6;stroke-width:5px;"/><rect x="937.812" y="454.423" width="80.075" height="80.075" style="fill:none;stroke:#9d33d6;stroke-width:5px;"/><rect x="643.642" y="338.448" width="80.075" height="80.075" style="fill:none;stroke:#9d33d6;stroke-width:5px;"/><rect x="643.674" y="570.061" width="80.075" height="80.075" style="fill:none;stroke:#9d33d6;stroke-width:5px;"/><rect x="643.183" y="222.647" width="80.075" height="80.075" style="fill:none;stroke:#9d33d6;stroke-width:5px;"/><rect x="643.215" y="454.261" width="80.075" height="80.075" style="fill:none;stroke:#9d33d6;stroke-width:5px;"/><rect x="447.244" y="338.471" width="80.075" height="80.075" style="fill:none;stroke:#9d33d6;stroke-width:5px;"/><rect x="447.275" y="570.084" width="80.075" height="80.075" style="fill:none;stroke:#9d33d6;stroke-width:5px;"/><rect x="446.785" y="222.67" width="80.075" height="80.075" style="fill:none;stroke:#9d33d6;stroke-width:5px;"/><rect x="446.816" y="454.284" width="80.075" height="80.075" style="fill:none;stroke:#9d33d6;stroke-width:5px;"/><rect x="840.041" y="338.328" width="80.075" height="80.075" style="fill:none;stroke:#9d33d6;stroke-width:5px;"/><rect x="840.072" y="569.942" width="80.075" height="80.075" style="fill:none;stroke:#9d33d6;stroke-width:5px;"/><rect x="839.582" y="222.528" width="80.075" height="80.075" style="fill:none;stroke:#9d33d6;stroke-width:5px;"/><rect x="839.613" y="454.141" width="80.075" height="80.075" style="fill:none;stroke:#9d33d6;stroke-width:5px;"/><rect x="1036.44" y="338.496" width="80.075" height="80.075" style="fill:none;stroke:#9d33d6;stroke-width:5px;"/><rect x="1036.47" y="570.11" width="80.075" height="80.075" style="fill:none;stroke:#9d33d6;stroke-width:5px;"/><rect x="1035.98" y="222.696" width="80.075" height="80.075" style="fill:none;stroke:#9d33d6;stroke-width:5px;"/><rect x="1036.01" y="454.31" width="80.075" height="80.075" style="fill:none;stroke:#9d33d6;stroke-width:5px;"/></g><g id="Sidebar"><rect x="147.678" y="222.641" width="212.475" height="15.94" style="fill:none;stroke:#9d33d6;stroke-width:5px;"/><rect x="147.678" y="415.871" width="111" height="15.94" style="fill:none;stroke:#9d33d6;stroke-width:5px;"/><rect x="147.678" y="318.737" width="185" height="15.94" style="fill:none;stroke:#9d33d6;stroke-width:5px;"/><rect x="147.678" y="511.967" width="132" height="15.94" style="fill:none;stroke:#9d33d6;stroke-width:5px;"/><rect x="147.678" y="286.59" width="137" height="15.812" style="fill:none;stroke:#9d33d6;stroke-width:5px;"/><rect x="147.678" y="479.82" width="173" height="15.812" style="fill:none;stroke:#9d33d6;stroke-width:5px;"/><rect x="147.678" y="382.686" width="156" height="15.812" style="fill:none;stroke:#9d33d6;stroke-width:5px;"/><rect x="147.678" y="575.916" width="100" height="15.812" style="fill:none;stroke:#9d33d6;stroke-width:5px;"/><rect x="147.678" y="255.482" width="200" height="15" style="fill:none;stroke:#9d33d6;stroke-width:5px;"/><rect x="147.678" y="448.712" width="199" height="15.007" style="fill:none;stroke:#9d33d6;stroke-width:5px;"/><rect x="147.678" y="351.578" width="127" height="15.007" style="fill:none;stroke:#9d33d6;stroke-width:5px;"/><rect x="147.678" y="544.808" width="143" height="15.007" style="fill:none;stroke:#9d33d6;stroke-width:5px;"/></g></g></svg>